<mxfile host="app.diagrams.net" agent="Mozilla/5.0 (Windows NT 10.0; Win64; x64) AppleWebKit/537.36 (KHTML, like Gecko) Chrome/141.0.0.0 Safari/537.36 Edg/141.0.0.0" version="28.2.8">
  <diagram name="Страница — 1" id="GmdYmjyLQVZz6QHHyPdl">
    <mxGraphModel dx="2494" dy="-381" grid="1" gridSize="10" guides="1" tooltips="1" connect="1" arrows="1" fold="1" page="1" pageScale="1" pageWidth="827" pageHeight="1169" math="0" shadow="0">
      <root>
        <mxCell id="0" />
        <mxCell id="1" parent="0" />
        <mxCell id="r_7eDQhoXgsMT4AZ9ieX-1" value="Room" style="swimlane;fontStyle=1;align=center;verticalAlign=top;childLayout=stackLayout;horizontal=1;startSize=26;horizontalStack=0;resizeParent=1;resizeParentMax=0;resizeLast=0;collapsible=1;marginBottom=0;whiteSpace=wrap;html=1;strokeWidth=1;swimlaneLine=1;shadow=0;fontSize=12;" vertex="1" parent="1">
          <mxGeometry x="640" y="1660" width="200" height="268" as="geometry" />
        </mxCell>
        <mxCell id="r_7eDQhoXgsMT4AZ9ieX-2" value="- number: String" style="text;align=left;verticalAlign=top;spacingLeft=4;spacingRight=4;overflow=hidden;rotatable=0;points=[[0,0.5],[1,0.5]];portConstraint=eastwest;whiteSpace=wrap;html=1;strokeWidth=1;swimlaneLine=1;shadow=0;fontSize=12;" vertex="1" parent="r_7eDQhoXgsMT4AZ9ieX-1">
          <mxGeometry y="26" width="200" height="26" as="geometry" />
        </mxCell>
        <mxCell id="r_7eDQhoXgsMT4AZ9ieX-50" value="- status: RoomStatus" style="text;align=left;verticalAlign=top;spacingLeft=4;spacingRight=4;overflow=hidden;rotatable=0;points=[[0,0.5],[1,0.5]];portConstraint=eastwest;whiteSpace=wrap;html=1;strokeWidth=1;swimlaneLine=1;shadow=0;fontSize=12;" vertex="1" parent="r_7eDQhoXgsMT4AZ9ieX-1">
          <mxGeometry y="52" width="200" height="26" as="geometry" />
        </mxCell>
        <mxCell id="r_7eDQhoXgsMT4AZ9ieX-51" value="- price: Double" style="text;align=left;verticalAlign=top;spacingLeft=4;spacingRight=4;overflow=hidden;rotatable=0;points=[[0,0.5],[1,0.5]];portConstraint=eastwest;whiteSpace=wrap;html=1;strokeWidth=1;swimlaneLine=1;shadow=0;fontSize=12;" vertex="1" parent="r_7eDQhoXgsMT4AZ9ieX-1">
          <mxGeometry y="78" width="200" height="26" as="geometry" />
        </mxCell>
        <mxCell id="r_7eDQhoXgsMT4AZ9ieX-3" value="" style="line;strokeWidth=1;align=left;verticalAlign=middle;spacingTop=-1;spacingLeft=3;spacingRight=3;rotatable=0;labelPosition=right;points=[];portConstraint=eastwest;swimlaneLine=1;shadow=0;fontSize=12;" vertex="1" parent="r_7eDQhoXgsMT4AZ9ieX-1">
          <mxGeometry y="104" width="200" height="8" as="geometry" />
        </mxCell>
        <mxCell id="r_7eDQhoXgsMT4AZ9ieX-4" value="+ Room(number: String)" style="text;align=left;verticalAlign=top;spacingLeft=4;spacingRight=4;overflow=hidden;rotatable=0;points=[[0,0.5],[1,0.5]];portConstraint=eastwest;whiteSpace=wrap;html=1;strokeWidth=1;swimlaneLine=1;shadow=0;fontSize=12;" vertex="1" parent="r_7eDQhoXgsMT4AZ9ieX-1">
          <mxGeometry y="112" width="200" height="26" as="geometry" />
        </mxCell>
        <mxCell id="r_7eDQhoXgsMT4AZ9ieX-52" value="+ number(): String" style="text;align=left;verticalAlign=top;spacingLeft=4;spacingRight=4;overflow=hidden;rotatable=0;points=[[0,0.5],[1,0.5]];portConstraint=eastwest;whiteSpace=wrap;html=1;strokeWidth=1;swimlaneLine=1;shadow=0;fontSize=12;" vertex="1" parent="r_7eDQhoXgsMT4AZ9ieX-1">
          <mxGeometry y="138" width="200" height="26" as="geometry" />
        </mxCell>
        <mxCell id="r_7eDQhoXgsMT4AZ9ieX-53" value="+ status(): RoomStatus" style="text;align=left;verticalAlign=top;spacingLeft=4;spacingRight=4;overflow=hidden;rotatable=0;points=[[0,0.5],[1,0.5]];portConstraint=eastwest;whiteSpace=wrap;html=1;strokeWidth=1;swimlaneLine=1;shadow=0;fontSize=12;" vertex="1" parent="r_7eDQhoXgsMT4AZ9ieX-1">
          <mxGeometry y="164" width="200" height="26" as="geometry" />
        </mxCell>
        <mxCell id="r_7eDQhoXgsMT4AZ9ieX-54" value="+ price(): double" style="text;align=left;verticalAlign=top;spacingLeft=4;spacingRight=4;overflow=hidden;rotatable=0;points=[[0,0.5],[1,0.5]];portConstraint=eastwest;whiteSpace=wrap;html=1;strokeWidth=1;swimlaneLine=1;shadow=0;fontSize=12;" vertex="1" parent="r_7eDQhoXgsMT4AZ9ieX-1">
          <mxGeometry y="190" width="200" height="26" as="geometry" />
        </mxCell>
        <mxCell id="r_7eDQhoXgsMT4AZ9ieX-55" value="&lt;font style=&quot;font-size: 10px;&quot;&gt;+ setStatus(status: RoomStatus): void&lt;/font&gt;" style="text;align=left;verticalAlign=top;spacingLeft=4;spacingRight=4;overflow=hidden;rotatable=0;points=[[0,0.5],[1,0.5]];portConstraint=eastwest;whiteSpace=wrap;html=1;strokeWidth=1;swimlaneLine=1;shadow=0;fontSize=12;" vertex="1" parent="r_7eDQhoXgsMT4AZ9ieX-1">
          <mxGeometry y="216" width="200" height="26" as="geometry" />
        </mxCell>
        <mxCell id="r_7eDQhoXgsMT4AZ9ieX-56" value="&lt;font&gt;+ setPrice(price: double): void&lt;/font&gt;" style="text;align=left;verticalAlign=top;spacingLeft=4;spacingRight=4;overflow=hidden;rotatable=0;points=[[0,0.5],[1,0.5]];portConstraint=eastwest;whiteSpace=wrap;html=1;strokeWidth=1;swimlaneLine=1;shadow=0;fontSize=12;" vertex="1" parent="r_7eDQhoXgsMT4AZ9ieX-1">
          <mxGeometry y="242" width="200" height="26" as="geometry" />
        </mxCell>
        <mxCell id="r_7eDQhoXgsMT4AZ9ieX-5" value="enum RoomStatus&lt;div&gt;&lt;br&gt;&lt;/div&gt;" style="swimlane;fontStyle=1;align=center;verticalAlign=top;childLayout=stackLayout;horizontal=1;startSize=26;horizontalStack=0;resizeParent=1;resizeParentMax=0;resizeLast=0;collapsible=1;marginBottom=0;whiteSpace=wrap;html=1;strokeWidth=1;swimlaneLine=1;shadow=0;fontSize=12;" vertex="1" parent="1">
          <mxGeometry x="510" y="2000" width="160" height="78" as="geometry" />
        </mxCell>
        <mxCell id="r_7eDQhoXgsMT4AZ9ieX-8" value="AVAILABLE" style="text;align=left;verticalAlign=top;spacingLeft=4;spacingRight=4;overflow=hidden;rotatable=0;points=[[0,0.5],[1,0.5]];portConstraint=eastwest;whiteSpace=wrap;html=1;strokeWidth=1;swimlaneLine=1;shadow=0;fontSize=12;" vertex="1" parent="r_7eDQhoXgsMT4AZ9ieX-5">
          <mxGeometry y="26" width="160" height="26" as="geometry" />
        </mxCell>
        <mxCell id="r_7eDQhoXgsMT4AZ9ieX-49" value="MAINTENANCE" style="text;align=left;verticalAlign=top;spacingLeft=4;spacingRight=4;overflow=hidden;rotatable=0;points=[[0,0.5],[1,0.5]];portConstraint=eastwest;whiteSpace=wrap;html=1;strokeWidth=1;swimlaneLine=1;shadow=0;fontSize=12;" vertex="1" parent="r_7eDQhoXgsMT4AZ9ieX-5">
          <mxGeometry y="52" width="160" height="26" as="geometry" />
        </mxCell>
        <mxCell id="r_7eDQhoXgsMT4AZ9ieX-9" value="Assignment" style="swimlane;fontStyle=1;align=center;verticalAlign=top;childLayout=stackLayout;horizontal=1;startSize=26;horizontalStack=0;resizeParent=1;resizeParentMax=0;resizeLast=0;collapsible=1;marginBottom=0;whiteSpace=wrap;html=1;strokeWidth=1;swimlaneLine=1;shadow=0;fontSize=12;" vertex="1" parent="1">
          <mxGeometry x="1000" y="1480" width="160" height="78" as="geometry" />
        </mxCell>
        <mxCell id="r_7eDQhoXgsMT4AZ9ieX-12" value="+ roomNumber: String" style="text;align=left;verticalAlign=top;spacingLeft=4;spacingRight=4;overflow=hidden;rotatable=0;points=[[0,0.5],[1,0.5]];portConstraint=eastwest;whiteSpace=wrap;html=1;strokeWidth=1;swimlaneLine=1;shadow=0;fontSize=12;" vertex="1" parent="r_7eDQhoXgsMT4AZ9ieX-9">
          <mxGeometry y="26" width="160" height="26" as="geometry" />
        </mxCell>
        <mxCell id="r_7eDQhoXgsMT4AZ9ieX-57" value="+ guestName: String" style="text;align=left;verticalAlign=top;spacingLeft=4;spacingRight=4;overflow=hidden;rotatable=0;points=[[0,0.5],[1,0.5]];portConstraint=eastwest;whiteSpace=wrap;html=1;strokeWidth=1;swimlaneLine=1;shadow=0;fontSize=12;" vertex="1" parent="r_7eDQhoXgsMT4AZ9ieX-9">
          <mxGeometry y="52" width="160" height="26" as="geometry" />
        </mxCell>
        <mxCell id="r_7eDQhoXgsMT4AZ9ieX-13" value="&amp;lt;&amp;lt;&amp;lt;Rooms&amp;gt;&amp;gt;&amp;gt;" style="swimlane;fontStyle=1;align=center;verticalAlign=top;childLayout=stackLayout;horizontal=1;startSize=26;horizontalStack=0;resizeParent=1;resizeParentMax=0;resizeLast=0;collapsible=1;marginBottom=0;whiteSpace=wrap;html=1;strokeWidth=1;swimlaneLine=1;shadow=0;fontSize=12;" vertex="1" parent="1">
          <mxGeometry x="1080" y="2030" width="250" height="208" as="geometry" />
        </mxCell>
        <mxCell id="r_7eDQhoXgsMT4AZ9ieX-16" value="&lt;font&gt;&lt;font&gt;+ getRoomsNumber(): Set&amp;lt;String&lt;/font&gt;&amp;gt;&lt;/font&gt;" style="text;align=left;verticalAlign=top;spacingLeft=4;spacingRight=4;overflow=hidden;rotatable=0;points=[[0,0.5],[1,0.5]];portConstraint=eastwest;whiteSpace=wrap;html=1;strokeWidth=1;swimlaneLine=1;shadow=0;fontSize=12;" vertex="1" parent="r_7eDQhoXgsMT4AZ9ieX-13">
          <mxGeometry y="26" width="250" height="26" as="geometry" />
        </mxCell>
        <mxCell id="r_7eDQhoXgsMT4AZ9ieX-58" value="&lt;font&gt;+ addRoom(number: String): void&lt;/font&gt;" style="text;align=left;verticalAlign=top;spacingLeft=4;spacingRight=4;overflow=hidden;rotatable=0;points=[[0,0.5],[1,0.5]];portConstraint=eastwest;whiteSpace=wrap;html=1;strokeWidth=1;swimlaneLine=1;shadow=0;fontSize=12;" vertex="1" parent="r_7eDQhoXgsMT4AZ9ieX-13">
          <mxGeometry y="52" width="250" height="26" as="geometry" />
        </mxCell>
        <mxCell id="r_7eDQhoXgsMT4AZ9ieX-59" value="+ count(): int" style="text;align=left;verticalAlign=top;spacingLeft=4;spacingRight=4;overflow=hidden;rotatable=0;points=[[0,0.5],[1,0.5]];portConstraint=eastwest;whiteSpace=wrap;html=1;strokeWidth=1;swimlaneLine=1;shadow=0;fontSize=12;" vertex="1" parent="r_7eDQhoXgsMT4AZ9ieX-13">
          <mxGeometry y="78" width="250" height="26" as="geometry" />
        </mxCell>
        <mxCell id="r_7eDQhoXgsMT4AZ9ieX-60" value="&lt;font style=&quot;font-size: 9px;&quot;&gt;+ setRoomStatus(number: String, status: RoomStatus): void&lt;/font&gt;" style="text;align=left;verticalAlign=top;spacingLeft=4;spacingRight=4;overflow=hidden;rotatable=0;points=[[0,0.5],[1,0.5]];portConstraint=eastwest;whiteSpace=wrap;html=1;strokeWidth=1;swimlaneLine=1;shadow=0;fontSize=12;" vertex="1" parent="r_7eDQhoXgsMT4AZ9ieX-13">
          <mxGeometry y="104" width="250" height="26" as="geometry" />
        </mxCell>
        <mxCell id="r_7eDQhoXgsMT4AZ9ieX-61" value="&lt;font style=&quot;font-size: 10px;&quot;&gt;+ setRoomPrice(number: String, price: double): void&lt;/font&gt;" style="text;align=left;verticalAlign=top;spacingLeft=4;spacingRight=4;overflow=hidden;rotatable=0;points=[[0,0.5],[1,0.5]];portConstraint=eastwest;whiteSpace=wrap;html=1;strokeWidth=1;swimlaneLine=1;shadow=0;fontSize=12;" vertex="1" parent="r_7eDQhoXgsMT4AZ9ieX-13">
          <mxGeometry y="130" width="250" height="26" as="geometry" />
        </mxCell>
        <mxCell id="r_7eDQhoXgsMT4AZ9ieX-62" value="+ getRoom(number: String): Room" style="text;align=left;verticalAlign=top;spacingLeft=4;spacingRight=4;overflow=hidden;rotatable=0;points=[[0,0.5],[1,0.5]];portConstraint=eastwest;whiteSpace=wrap;html=1;strokeWidth=1;swimlaneLine=1;shadow=0;fontSize=12;" vertex="1" parent="r_7eDQhoXgsMT4AZ9ieX-13">
          <mxGeometry y="156" width="250" height="26" as="geometry" />
        </mxCell>
        <mxCell id="r_7eDQhoXgsMT4AZ9ieX-63" value="+ isRoomBookable(number: String): bool" style="text;align=left;verticalAlign=top;spacingLeft=4;spacingRight=4;overflow=hidden;rotatable=0;points=[[0,0.5],[1,0.5]];portConstraint=eastwest;whiteSpace=wrap;html=1;strokeWidth=1;swimlaneLine=1;shadow=0;fontSize=12;" vertex="1" parent="r_7eDQhoXgsMT4AZ9ieX-13">
          <mxGeometry y="182" width="250" height="26" as="geometry" />
        </mxCell>
        <mxCell id="r_7eDQhoXgsMT4AZ9ieX-17" value="&amp;lt;&amp;lt;&amp;lt;GuestRegistry&amp;gt;&amp;gt;&amp;gt;" style="swimlane;fontStyle=1;align=center;verticalAlign=top;childLayout=stackLayout;horizontal=1;startSize=26;horizontalStack=0;resizeParent=1;resizeParentMax=0;resizeLast=0;collapsible=1;marginBottom=0;whiteSpace=wrap;html=1;strokeWidth=1;swimlaneLine=1;shadow=0;fontSize=12;" vertex="1" parent="1">
          <mxGeometry x="850" y="2030" width="211" height="78" as="geometry" />
        </mxCell>
        <mxCell id="r_7eDQhoXgsMT4AZ9ieX-20" value="&lt;font&gt;+ getListOfPeople(): Set&amp;lt;String&amp;gt;&lt;/font&gt;" style="text;align=left;verticalAlign=top;spacingLeft=4;spacingRight=4;overflow=hidden;rotatable=0;points=[[0,0.5],[1,0.5]];portConstraint=eastwest;whiteSpace=wrap;html=1;strokeWidth=1;swimlaneLine=1;shadow=0;fontSize=12;" vertex="1" parent="r_7eDQhoXgsMT4AZ9ieX-17">
          <mxGeometry y="26" width="211" height="26" as="geometry" />
        </mxCell>
        <mxCell id="r_7eDQhoXgsMT4AZ9ieX-64" value="&lt;font&gt;+ addHuman(human: String): void&lt;/font&gt;" style="text;align=left;verticalAlign=top;spacingLeft=4;spacingRight=4;overflow=hidden;rotatable=0;points=[[0,0.5],[1,0.5]];portConstraint=eastwest;whiteSpace=wrap;html=1;strokeWidth=1;swimlaneLine=1;shadow=0;fontSize=12;" vertex="1" parent="r_7eDQhoXgsMT4AZ9ieX-17">
          <mxGeometry y="52" width="211" height="26" as="geometry" />
        </mxCell>
        <mxCell id="r_7eDQhoXgsMT4AZ9ieX-21" value="&amp;lt;&amp;lt;&amp;lt;ServiceCatalog&amp;gt;&amp;gt;&amp;gt;" style="swimlane;fontStyle=1;align=center;verticalAlign=top;childLayout=stackLayout;horizontal=1;startSize=26;horizontalStack=0;resizeParent=1;resizeParentMax=0;resizeLast=0;collapsible=1;marginBottom=0;whiteSpace=wrap;html=1;strokeWidth=1;swimlaneLine=1;shadow=0;fontSize=12;" vertex="1" parent="1">
          <mxGeometry x="283" y="1460" width="297" height="130" as="geometry" />
        </mxCell>
        <mxCell id="r_7eDQhoXgsMT4AZ9ieX-24" value="&lt;font&gt;+ addService(name: String, price: double): void&lt;/font&gt;" style="text;align=left;verticalAlign=top;spacingLeft=4;spacingRight=4;overflow=hidden;rotatable=0;points=[[0,0.5],[1,0.5]];portConstraint=eastwest;whiteSpace=wrap;html=1;strokeWidth=1;swimlaneLine=1;shadow=0;fontSize=12;" vertex="1" parent="r_7eDQhoXgsMT4AZ9ieX-21">
          <mxGeometry y="26" width="297" height="26" as="geometry" />
        </mxCell>
        <mxCell id="r_7eDQhoXgsMT4AZ9ieX-65" value="&lt;font&gt;+ setServicePrice(name: String, price: double): void&lt;/font&gt;" style="text;align=left;verticalAlign=top;spacingLeft=4;spacingRight=4;overflow=hidden;rotatable=0;points=[[0,0.5],[1,0.5]];portConstraint=eastwest;whiteSpace=wrap;html=1;strokeWidth=1;swimlaneLine=1;shadow=0;fontSize=12;" vertex="1" parent="r_7eDQhoXgsMT4AZ9ieX-21">
          <mxGeometry y="52" width="297" height="26" as="geometry" />
        </mxCell>
        <mxCell id="r_7eDQhoXgsMT4AZ9ieX-66" value="+ listServiceName(): Set&amp;lt;String&amp;gt;&amp;nbsp;" style="text;align=left;verticalAlign=top;spacingLeft=4;spacingRight=4;overflow=hidden;rotatable=0;points=[[0,0.5],[1,0.5]];portConstraint=eastwest;whiteSpace=wrap;html=1;strokeWidth=1;swimlaneLine=1;shadow=0;fontSize=12;" vertex="1" parent="r_7eDQhoXgsMT4AZ9ieX-21">
          <mxGeometry y="78" width="297" height="26" as="geometry" />
        </mxCell>
        <mxCell id="r_7eDQhoXgsMT4AZ9ieX-67" value="+ getServicePrice(name: String): double" style="text;align=left;verticalAlign=top;spacingLeft=4;spacingRight=4;overflow=hidden;rotatable=0;points=[[0,0.5],[1,0.5]];portConstraint=eastwest;whiteSpace=wrap;html=1;strokeWidth=1;swimlaneLine=1;shadow=0;fontSize=12;" vertex="1" parent="r_7eDQhoXgsMT4AZ9ieX-21">
          <mxGeometry y="104" width="297" height="26" as="geometry" />
        </mxCell>
        <mxCell id="r_7eDQhoXgsMT4AZ9ieX-25" value="&amp;lt;&amp;lt;&amp;lt;CheckInService&amp;gt;&amp;gt;&amp;gt;" style="swimlane;fontStyle=1;align=center;verticalAlign=top;childLayout=stackLayout;horizontal=1;startSize=26;horizontalStack=0;resizeParent=1;resizeParentMax=0;resizeLast=0;collapsible=1;marginBottom=0;whiteSpace=wrap;html=1;strokeWidth=1;swimlaneLine=1;shadow=0;fontSize=12;" vertex="1" parent="1">
          <mxGeometry x="1320" y="1650" width="220" height="182" as="geometry" />
        </mxCell>
        <mxCell id="r_7eDQhoXgsMT4AZ9ieX-28" value="+ checkIn(): bool" style="text;align=left;verticalAlign=top;spacingLeft=4;spacingRight=4;overflow=hidden;rotatable=0;points=[[0,0.5],[1,0.5]];portConstraint=eastwest;whiteSpace=wrap;html=1;strokeWidth=1;swimlaneLine=1;shadow=0;fontSize=12;" vertex="1" parent="r_7eDQhoXgsMT4AZ9ieX-25">
          <mxGeometry y="26" width="220" height="26" as="geometry" />
        </mxCell>
        <mxCell id="r_7eDQhoXgsMT4AZ9ieX-68" value="+ AssignAllPairwais():void" style="text;align=left;verticalAlign=top;spacingLeft=4;spacingRight=4;overflow=hidden;rotatable=0;points=[[0,0.5],[1,0.5]];portConstraint=eastwest;whiteSpace=wrap;html=1;strokeWidth=1;swimlaneLine=1;shadow=0;fontSize=12;" vertex="1" parent="r_7eDQhoXgsMT4AZ9ieX-25">
          <mxGeometry y="52" width="220" height="26" as="geometry" />
        </mxCell>
        <mxCell id="r_7eDQhoXgsMT4AZ9ieX-69" value="&lt;font&gt;&lt;font&gt;+ checkoutByRoom(roomNumber: String): boo&lt;/font&gt;l&lt;/font&gt;" style="text;align=left;verticalAlign=top;spacingLeft=4;spacingRight=4;overflow=hidden;rotatable=0;points=[[0,0.5],[1,0.5]];portConstraint=eastwest;whiteSpace=wrap;html=1;strokeWidth=1;swimlaneLine=1;shadow=0;fontSize=12;" vertex="1" parent="r_7eDQhoXgsMT4AZ9ieX-25">
          <mxGeometry y="78" width="220" height="26" as="geometry" />
        </mxCell>
        <mxCell id="r_7eDQhoXgsMT4AZ9ieX-70" value="&lt;font style=&quot;font-size: 10px;&quot;&gt;&lt;font style=&quot;&quot;&gt;+ checkoutByGuest(guestName: String): boo&lt;/font&gt;l&lt;/font&gt;" style="text;align=left;verticalAlign=top;spacingLeft=4;spacingRight=4;overflow=hidden;rotatable=0;points=[[0,0.5],[1,0.5]];portConstraint=eastwest;whiteSpace=wrap;html=1;strokeWidth=1;swimlaneLine=1;shadow=0;fontSize=12;" vertex="1" parent="r_7eDQhoXgsMT4AZ9ieX-25">
          <mxGeometry y="104" width="220" height="26" as="geometry" />
        </mxCell>
        <mxCell id="r_7eDQhoXgsMT4AZ9ieX-71" value="+ printAssignments(): void" style="text;align=left;verticalAlign=top;spacingLeft=4;spacingRight=4;overflow=hidden;rotatable=0;points=[[0,0.5],[1,0.5]];portConstraint=eastwest;whiteSpace=wrap;html=1;strokeWidth=1;swimlaneLine=1;shadow=0;fontSize=12;" vertex="1" parent="r_7eDQhoXgsMT4AZ9ieX-25">
          <mxGeometry y="130" width="220" height="26" as="geometry" />
        </mxCell>
        <mxCell id="r_7eDQhoXgsMT4AZ9ieX-72" value="&lt;font style=&quot;font-size: 11px;&quot;&gt;+ viewAssignments(): set&amp;lt;Assignment&amp;gt;&lt;/font&gt;" style="text;align=left;verticalAlign=top;spacingLeft=4;spacingRight=4;overflow=hidden;rotatable=0;points=[[0,0.5],[1,0.5]];portConstraint=eastwest;whiteSpace=wrap;html=1;strokeWidth=1;swimlaneLine=1;shadow=0;fontSize=12;" vertex="1" parent="r_7eDQhoXgsMT4AZ9ieX-25">
          <mxGeometry y="156" width="220" height="26" as="geometry" />
        </mxCell>
        <mxCell id="r_7eDQhoXgsMT4AZ9ieX-29" value="InMemoryRooms" style="swimlane;fontStyle=1;align=center;verticalAlign=top;childLayout=stackLayout;horizontal=1;startSize=26;horizontalStack=0;resizeParent=1;resizeParentMax=0;resizeLast=0;collapsible=1;marginBottom=0;whiteSpace=wrap;html=1;strokeWidth=1;swimlaneLine=1;shadow=0;fontSize=12;" vertex="1" parent="1">
          <mxGeometry x="283" y="1660" width="287" height="242" as="geometry" />
        </mxCell>
        <mxCell id="r_7eDQhoXgsMT4AZ9ieX-30" value="&lt;font&gt;- rooms: Map&amp;lt;String, Room&amp;gt;&amp;nbsp;&lt;/font&gt;" style="text;align=left;verticalAlign=top;spacingLeft=4;spacingRight=4;overflow=hidden;rotatable=0;points=[[0,0.5],[1,0.5]];portConstraint=eastwest;whiteSpace=wrap;html=1;strokeWidth=1;swimlaneLine=1;shadow=0;fontSize=12;" vertex="1" parent="r_7eDQhoXgsMT4AZ9ieX-29">
          <mxGeometry y="26" width="287" height="26" as="geometry" />
        </mxCell>
        <mxCell id="r_7eDQhoXgsMT4AZ9ieX-31" value="" style="line;strokeWidth=1;align=left;verticalAlign=middle;spacingTop=-1;spacingLeft=3;spacingRight=3;rotatable=0;labelPosition=right;points=[];portConstraint=eastwest;swimlaneLine=1;shadow=0;fontSize=12;" vertex="1" parent="r_7eDQhoXgsMT4AZ9ieX-29">
          <mxGeometry y="52" width="287" height="8" as="geometry" />
        </mxCell>
        <mxCell id="r_7eDQhoXgsMT4AZ9ieX-32" value="&lt;font&gt;+ getRoomsNumber(): Set&amp;lt;String&amp;gt;&lt;/font&gt;" style="text;align=left;verticalAlign=top;spacingLeft=4;spacingRight=4;overflow=hidden;rotatable=0;points=[[0,0.5],[1,0.5]];portConstraint=eastwest;whiteSpace=wrap;html=1;strokeWidth=1;swimlaneLine=1;shadow=0;fontSize=12;" vertex="1" parent="r_7eDQhoXgsMT4AZ9ieX-29">
          <mxGeometry y="60" width="287" height="26" as="geometry" />
        </mxCell>
        <mxCell id="r_7eDQhoXgsMT4AZ9ieX-73" value="+ addRoom(number: String): void" style="text;align=left;verticalAlign=top;spacingLeft=4;spacingRight=4;overflow=hidden;rotatable=0;points=[[0,0.5],[1,0.5]];portConstraint=eastwest;whiteSpace=wrap;html=1;strokeWidth=1;swimlaneLine=1;shadow=0;fontSize=12;" vertex="1" parent="r_7eDQhoXgsMT4AZ9ieX-29">
          <mxGeometry y="86" width="287" height="26" as="geometry" />
        </mxCell>
        <mxCell id="r_7eDQhoXgsMT4AZ9ieX-74" value="+ count(): int" style="text;align=left;verticalAlign=top;spacingLeft=4;spacingRight=4;overflow=hidden;rotatable=0;points=[[0,0.5],[1,0.5]];portConstraint=eastwest;whiteSpace=wrap;html=1;strokeWidth=1;swimlaneLine=1;shadow=0;fontSize=12;" vertex="1" parent="r_7eDQhoXgsMT4AZ9ieX-29">
          <mxGeometry y="112" width="287" height="26" as="geometry" />
        </mxCell>
        <mxCell id="r_7eDQhoXgsMT4AZ9ieX-75" value="&lt;font style=&quot;font-size: 10px;&quot;&gt;&lt;font style=&quot;&quot;&gt;+ setRoomStatus(number: String, status: RoomStatus): void&lt;/font&gt;&amp;nbsp;&lt;/font&gt;" style="text;align=left;verticalAlign=top;spacingLeft=4;spacingRight=4;overflow=hidden;rotatable=0;points=[[0,0.5],[1,0.5]];portConstraint=eastwest;whiteSpace=wrap;html=1;strokeWidth=1;swimlaneLine=1;shadow=0;fontSize=12;" vertex="1" parent="r_7eDQhoXgsMT4AZ9ieX-29">
          <mxGeometry y="138" width="287" height="26" as="geometry" />
        </mxCell>
        <mxCell id="r_7eDQhoXgsMT4AZ9ieX-76" value="&lt;font&gt;+ setRoomPrice(number: String, price: double): void&lt;/font&gt;" style="text;align=left;verticalAlign=top;spacingLeft=4;spacingRight=4;overflow=hidden;rotatable=0;points=[[0,0.5],[1,0.5]];portConstraint=eastwest;whiteSpace=wrap;html=1;strokeWidth=1;swimlaneLine=1;shadow=0;fontSize=12;" vertex="1" parent="r_7eDQhoXgsMT4AZ9ieX-29">
          <mxGeometry y="164" width="287" height="26" as="geometry" />
        </mxCell>
        <mxCell id="r_7eDQhoXgsMT4AZ9ieX-77" value="+ getRoom(number: String): Room" style="text;align=left;verticalAlign=top;spacingLeft=4;spacingRight=4;overflow=hidden;rotatable=0;points=[[0,0.5],[1,0.5]];portConstraint=eastwest;whiteSpace=wrap;html=1;strokeWidth=1;swimlaneLine=1;shadow=0;fontSize=12;" vertex="1" parent="r_7eDQhoXgsMT4AZ9ieX-29">
          <mxGeometry y="190" width="287" height="26" as="geometry" />
        </mxCell>
        <mxCell id="r_7eDQhoXgsMT4AZ9ieX-78" value="+ isRoomBookable(number: String): bool" style="text;align=left;verticalAlign=top;spacingLeft=4;spacingRight=4;overflow=hidden;rotatable=0;points=[[0,0.5],[1,0.5]];portConstraint=eastwest;whiteSpace=wrap;html=1;strokeWidth=1;swimlaneLine=1;shadow=0;fontSize=12;" vertex="1" parent="r_7eDQhoXgsMT4AZ9ieX-29">
          <mxGeometry y="216" width="287" height="26" as="geometry" />
        </mxCell>
        <mxCell id="r_7eDQhoXgsMT4AZ9ieX-33" value="InMemoryGuestRegistry" style="swimlane;fontStyle=1;align=center;verticalAlign=top;childLayout=stackLayout;horizontal=1;startSize=26;horizontalStack=0;resizeParent=1;resizeParentMax=0;resizeLast=0;collapsible=1;marginBottom=0;whiteSpace=wrap;html=1;strokeWidth=1;swimlaneLine=1;shadow=0;fontSize=12;" vertex="1" parent="1">
          <mxGeometry x="1360" y="2030" width="240" height="164" as="geometry" />
        </mxCell>
        <mxCell id="r_7eDQhoXgsMT4AZ9ieX-34" value="- people: set&amp;lt;String&amp;gt;" style="text;align=left;verticalAlign=top;spacingLeft=4;spacingRight=4;overflow=hidden;rotatable=0;points=[[0,0.5],[1,0.5]];portConstraint=eastwest;whiteSpace=wrap;html=1;strokeWidth=1;swimlaneLine=1;shadow=0;fontSize=12;" vertex="1" parent="r_7eDQhoXgsMT4AZ9ieX-33">
          <mxGeometry y="26" width="240" height="26" as="geometry" />
        </mxCell>
        <mxCell id="r_7eDQhoXgsMT4AZ9ieX-80" value="- rooms: Rooms" style="text;align=left;verticalAlign=top;spacingLeft=4;spacingRight=4;overflow=hidden;rotatable=0;points=[[0,0.5],[1,0.5]];portConstraint=eastwest;whiteSpace=wrap;html=1;strokeWidth=1;swimlaneLine=1;shadow=0;fontSize=12;" vertex="1" parent="r_7eDQhoXgsMT4AZ9ieX-33">
          <mxGeometry y="52" width="240" height="26" as="geometry" />
        </mxCell>
        <mxCell id="r_7eDQhoXgsMT4AZ9ieX-35" value="" style="line;strokeWidth=1;align=left;verticalAlign=middle;spacingTop=-1;spacingLeft=3;spacingRight=3;rotatable=0;labelPosition=right;points=[];portConstraint=eastwest;swimlaneLine=1;shadow=0;fontSize=12;" vertex="1" parent="r_7eDQhoXgsMT4AZ9ieX-33">
          <mxGeometry y="78" width="240" height="8" as="geometry" />
        </mxCell>
        <mxCell id="r_7eDQhoXgsMT4AZ9ieX-36" value="&lt;font&gt;+ InMemoryGuestRegestry(rooms: Rooms)&lt;/font&gt;" style="text;align=left;verticalAlign=top;spacingLeft=4;spacingRight=4;overflow=hidden;rotatable=0;points=[[0,0.5],[1,0.5]];portConstraint=eastwest;whiteSpace=wrap;html=1;strokeWidth=1;swimlaneLine=1;shadow=0;fontSize=12;" vertex="1" parent="r_7eDQhoXgsMT4AZ9ieX-33">
          <mxGeometry y="86" width="240" height="26" as="geometry" />
        </mxCell>
        <mxCell id="r_7eDQhoXgsMT4AZ9ieX-81" value="+ getListOfPeople(): Set&amp;lt;String&amp;gt;" style="text;align=left;verticalAlign=top;spacingLeft=4;spacingRight=4;overflow=hidden;rotatable=0;points=[[0,0.5],[1,0.5]];portConstraint=eastwest;whiteSpace=wrap;html=1;strokeWidth=1;swimlaneLine=1;shadow=0;fontSize=12;" vertex="1" parent="r_7eDQhoXgsMT4AZ9ieX-33">
          <mxGeometry y="112" width="240" height="26" as="geometry" />
        </mxCell>
        <mxCell id="r_7eDQhoXgsMT4AZ9ieX-82" value="+ addHuman(human: String): void" style="text;align=left;verticalAlign=top;spacingLeft=4;spacingRight=4;overflow=hidden;rotatable=0;points=[[0,0.5],[1,0.5]];portConstraint=eastwest;whiteSpace=wrap;html=1;strokeWidth=1;swimlaneLine=1;shadow=0;fontSize=12;" vertex="1" parent="r_7eDQhoXgsMT4AZ9ieX-33">
          <mxGeometry y="138" width="240" height="26" as="geometry" />
        </mxCell>
        <mxCell id="r_7eDQhoXgsMT4AZ9ieX-37" value="InMemoryServiceCatalog" style="swimlane;fontStyle=1;align=center;verticalAlign=top;childLayout=stackLayout;horizontal=1;startSize=26;horizontalStack=0;resizeParent=1;resizeParentMax=0;resizeLast=0;collapsible=1;marginBottom=0;whiteSpace=wrap;html=1;strokeWidth=1;swimlaneLine=1;shadow=0;fontSize=12;" vertex="1" parent="1">
          <mxGeometry x="-60" y="1660" width="290" height="242" as="geometry" />
        </mxCell>
        <mxCell id="r_7eDQhoXgsMT4AZ9ieX-38" value="&lt;font&gt;- service: Map&amp;lt;String, Service&amp;gt;&lt;/font&gt;" style="text;align=left;verticalAlign=top;spacingLeft=4;spacingRight=4;overflow=hidden;rotatable=0;points=[[0,0.5],[1,0.5]];portConstraint=eastwest;whiteSpace=wrap;html=1;strokeWidth=1;swimlaneLine=1;shadow=0;fontSize=12;" vertex="1" parent="r_7eDQhoXgsMT4AZ9ieX-37">
          <mxGeometry y="26" width="290" height="26" as="geometry" />
        </mxCell>
        <mxCell id="r_7eDQhoXgsMT4AZ9ieX-83" value="&lt;font&gt;public static class Service&lt;/font&gt;" style="text;align=left;verticalAlign=top;spacingLeft=4;spacingRight=4;overflow=hidden;rotatable=0;points=[[0,0.5],[1,0.5]];portConstraint=eastwest;whiteSpace=wrap;html=1;strokeWidth=1;swimlaneLine=1;shadow=0;fontSize=12;" vertex="1" parent="r_7eDQhoXgsMT4AZ9ieX-37">
          <mxGeometry y="52" width="290" height="26" as="geometry" />
        </mxCell>
        <mxCell id="r_7eDQhoXgsMT4AZ9ieX-85" value="&lt;font&gt;- name: String&lt;/font&gt;" style="text;align=left;verticalAlign=top;spacingLeft=4;spacingRight=4;overflow=hidden;rotatable=0;points=[[0,0.5],[1,0.5]];portConstraint=eastwest;whiteSpace=wrap;html=1;strokeWidth=1;swimlaneLine=1;shadow=0;fontSize=12;" vertex="1" parent="r_7eDQhoXgsMT4AZ9ieX-37">
          <mxGeometry y="78" width="290" height="26" as="geometry" />
        </mxCell>
        <mxCell id="r_7eDQhoXgsMT4AZ9ieX-86" value="&lt;font&gt;- price: double&lt;/font&gt;" style="text;align=left;verticalAlign=top;spacingLeft=4;spacingRight=4;overflow=hidden;rotatable=0;points=[[0,0.5],[1,0.5]];portConstraint=eastwest;whiteSpace=wrap;html=1;strokeWidth=1;swimlaneLine=1;shadow=0;fontSize=12;" vertex="1" parent="r_7eDQhoXgsMT4AZ9ieX-37">
          <mxGeometry y="104" width="290" height="26" as="geometry" />
        </mxCell>
        <mxCell id="r_7eDQhoXgsMT4AZ9ieX-39" value="" style="line;strokeWidth=1;align=left;verticalAlign=middle;spacingTop=-1;spacingLeft=3;spacingRight=3;rotatable=0;labelPosition=right;points=[];portConstraint=eastwest;swimlaneLine=1;shadow=0;fontSize=12;" vertex="1" parent="r_7eDQhoXgsMT4AZ9ieX-37">
          <mxGeometry y="130" width="290" height="8" as="geometry" />
        </mxCell>
        <mxCell id="r_7eDQhoXgsMT4AZ9ieX-40" value="&lt;font&gt;+ addService(name: String, price: double): void&lt;/font&gt;" style="text;align=left;verticalAlign=top;spacingLeft=4;spacingRight=4;overflow=hidden;rotatable=0;points=[[0,0.5],[1,0.5]];portConstraint=eastwest;whiteSpace=wrap;html=1;strokeWidth=1;swimlaneLine=1;shadow=0;fontSize=12;" vertex="1" parent="r_7eDQhoXgsMT4AZ9ieX-37">
          <mxGeometry y="138" width="290" height="26" as="geometry" />
        </mxCell>
        <mxCell id="r_7eDQhoXgsMT4AZ9ieX-87" value="&lt;font&gt;+ setServicePrice(name: String, price: doouble)&lt;/font&gt;" style="text;align=left;verticalAlign=top;spacingLeft=4;spacingRight=4;overflow=hidden;rotatable=0;points=[[0,0.5],[1,0.5]];portConstraint=eastwest;whiteSpace=wrap;html=1;strokeWidth=1;swimlaneLine=1;shadow=0;fontSize=12;" vertex="1" parent="r_7eDQhoXgsMT4AZ9ieX-37">
          <mxGeometry y="164" width="290" height="26" as="geometry" />
        </mxCell>
        <mxCell id="r_7eDQhoXgsMT4AZ9ieX-88" value="+ listServiceName(): Set&amp;lt;String&amp;gt;" style="text;align=left;verticalAlign=top;spacingLeft=4;spacingRight=4;overflow=hidden;rotatable=0;points=[[0,0.5],[1,0.5]];portConstraint=eastwest;whiteSpace=wrap;html=1;strokeWidth=1;swimlaneLine=1;shadow=0;fontSize=12;" vertex="1" parent="r_7eDQhoXgsMT4AZ9ieX-37">
          <mxGeometry y="190" width="290" height="26" as="geometry" />
        </mxCell>
        <mxCell id="r_7eDQhoXgsMT4AZ9ieX-89" value="+ getServicePrice(name: String): double" style="text;align=left;verticalAlign=top;spacingLeft=4;spacingRight=4;overflow=hidden;rotatable=0;points=[[0,0.5],[1,0.5]];portConstraint=eastwest;whiteSpace=wrap;html=1;strokeWidth=1;swimlaneLine=1;shadow=0;fontSize=12;" vertex="1" parent="r_7eDQhoXgsMT4AZ9ieX-37">
          <mxGeometry y="216" width="290" height="26" as="geometry" />
        </mxCell>
        <mxCell id="r_7eDQhoXgsMT4AZ9ieX-41" value="DefaultCheckInService" style="swimlane;fontStyle=1;align=center;verticalAlign=top;childLayout=stackLayout;horizontal=1;startSize=26;horizontalStack=0;resizeParent=1;resizeParentMax=0;resizeLast=0;collapsible=1;marginBottom=0;whiteSpace=wrap;html=1;strokeWidth=1;swimlaneLine=1;shadow=0;fontSize=12;" vertex="1" parent="1">
          <mxGeometry x="901" y="1640" width="340" height="346" as="geometry" />
        </mxCell>
        <mxCell id="r_7eDQhoXgsMT4AZ9ieX-42" value="- rooms: Rooms" style="text;align=left;verticalAlign=top;spacingLeft=4;spacingRight=4;overflow=hidden;rotatable=0;points=[[0,0.5],[1,0.5]];portConstraint=eastwest;whiteSpace=wrap;html=1;strokeWidth=1;swimlaneLine=1;shadow=0;fontSize=12;" vertex="1" parent="r_7eDQhoXgsMT4AZ9ieX-41">
          <mxGeometry y="26" width="340" height="26" as="geometry" />
        </mxCell>
        <mxCell id="r_7eDQhoXgsMT4AZ9ieX-90" value="- guests: guestsRegestry" style="text;align=left;verticalAlign=top;spacingLeft=4;spacingRight=4;overflow=hidden;rotatable=0;points=[[0,0.5],[1,0.5]];portConstraint=eastwest;whiteSpace=wrap;html=1;strokeWidth=1;swimlaneLine=1;shadow=0;fontSize=12;" vertex="1" parent="r_7eDQhoXgsMT4AZ9ieX-41">
          <mxGeometry y="52" width="340" height="26" as="geometry" />
        </mxCell>
        <mxCell id="r_7eDQhoXgsMT4AZ9ieX-91" value="- assigenments: Set&amp;lt;Assignments&amp;gt;" style="text;align=left;verticalAlign=top;spacingLeft=4;spacingRight=4;overflow=hidden;rotatable=0;points=[[0,0.5],[1,0.5]];portConstraint=eastwest;whiteSpace=wrap;html=1;strokeWidth=1;swimlaneLine=1;shadow=0;fontSize=12;" vertex="1" parent="r_7eDQhoXgsMT4AZ9ieX-41">
          <mxGeometry y="78" width="340" height="26" as="geometry" />
        </mxCell>
        <mxCell id="r_7eDQhoXgsMT4AZ9ieX-43" value="" style="line;strokeWidth=1;align=left;verticalAlign=middle;spacingTop=-1;spacingLeft=3;spacingRight=3;rotatable=0;labelPosition=right;points=[];portConstraint=eastwest;swimlaneLine=1;shadow=0;fontSize=12;" vertex="1" parent="r_7eDQhoXgsMT4AZ9ieX-41">
          <mxGeometry y="104" width="340" height="8" as="geometry" />
        </mxCell>
        <mxCell id="r_7eDQhoXgsMT4AZ9ieX-44" value="&lt;font style=&quot;font-size: 11px;&quot;&gt;+ DeraultCheckInService(rooms: Rooms, guest: GuestRegistry)&lt;/font&gt;" style="text;align=left;verticalAlign=top;spacingLeft=4;spacingRight=4;overflow=hidden;rotatable=0;points=[[0,0.5],[1,0.5]];portConstraint=eastwest;whiteSpace=wrap;html=1;strokeWidth=1;swimlaneLine=1;shadow=0;fontSize=12;" vertex="1" parent="r_7eDQhoXgsMT4AZ9ieX-41">
          <mxGeometry y="112" width="340" height="26" as="geometry" />
        </mxCell>
        <mxCell id="r_7eDQhoXgsMT4AZ9ieX-92" value="+ CheckIn(roomNumber: String, guestName: String): bool" style="text;align=left;verticalAlign=top;spacingLeft=4;spacingRight=4;overflow=hidden;rotatable=0;points=[[0,0.5],[1,0.5]];portConstraint=eastwest;whiteSpace=wrap;html=1;strokeWidth=1;swimlaneLine=1;shadow=0;fontSize=12;" vertex="1" parent="r_7eDQhoXgsMT4AZ9ieX-41">
          <mxGeometry y="138" width="340" height="26" as="geometry" />
        </mxCell>
        <mxCell id="r_7eDQhoXgsMT4AZ9ieX-93" value="+ assignAllPairwise(): void" style="text;align=left;verticalAlign=top;spacingLeft=4;spacingRight=4;overflow=hidden;rotatable=0;points=[[0,0.5],[1,0.5]];portConstraint=eastwest;whiteSpace=wrap;html=1;strokeWidth=1;swimlaneLine=1;shadow=0;fontSize=12;" vertex="1" parent="r_7eDQhoXgsMT4AZ9ieX-41">
          <mxGeometry y="164" width="340" height="26" as="geometry" />
        </mxCell>
        <mxCell id="r_7eDQhoXgsMT4AZ9ieX-94" value="+ CheckoutByRoom(roomNumber: String): bool" style="text;align=left;verticalAlign=top;spacingLeft=4;spacingRight=4;overflow=hidden;rotatable=0;points=[[0,0.5],[1,0.5]];portConstraint=eastwest;whiteSpace=wrap;html=1;strokeWidth=1;swimlaneLine=1;shadow=0;fontSize=12;" vertex="1" parent="r_7eDQhoXgsMT4AZ9ieX-41">
          <mxGeometry y="190" width="340" height="26" as="geometry" />
        </mxCell>
        <mxCell id="r_7eDQhoXgsMT4AZ9ieX-95" value="+ CheckoutByGuest(guestName: String): bool" style="text;align=left;verticalAlign=top;spacingLeft=4;spacingRight=4;overflow=hidden;rotatable=0;points=[[0,0.5],[1,0.5]];portConstraint=eastwest;whiteSpace=wrap;html=1;strokeWidth=1;swimlaneLine=1;shadow=0;fontSize=12;" vertex="1" parent="r_7eDQhoXgsMT4AZ9ieX-41">
          <mxGeometry y="216" width="340" height="26" as="geometry" />
        </mxCell>
        <mxCell id="r_7eDQhoXgsMT4AZ9ieX-96" value="+ printAssinments(): void" style="text;align=left;verticalAlign=top;spacingLeft=4;spacingRight=4;overflow=hidden;rotatable=0;points=[[0,0.5],[1,0.5]];portConstraint=eastwest;whiteSpace=wrap;html=1;strokeWidth=1;swimlaneLine=1;shadow=0;fontSize=12;" vertex="1" parent="r_7eDQhoXgsMT4AZ9ieX-41">
          <mxGeometry y="242" width="340" height="26" as="geometry" />
        </mxCell>
        <mxCell id="r_7eDQhoXgsMT4AZ9ieX-97" value="+ viewAssigenments(): Set&amp;lt;Assignments&amp;gt;" style="text;align=left;verticalAlign=top;spacingLeft=4;spacingRight=4;overflow=hidden;rotatable=0;points=[[0,0.5],[1,0.5]];portConstraint=eastwest;whiteSpace=wrap;html=1;strokeWidth=1;swimlaneLine=1;shadow=0;fontSize=12;" vertex="1" parent="r_7eDQhoXgsMT4AZ9ieX-41">
          <mxGeometry y="268" width="340" height="26" as="geometry" />
        </mxCell>
        <mxCell id="r_7eDQhoXgsMT4AZ9ieX-98" value="- isRoomBusy(roomNumber: String): bool" style="text;align=left;verticalAlign=top;spacingLeft=4;spacingRight=4;overflow=hidden;rotatable=0;points=[[0,0.5],[1,0.5]];portConstraint=eastwest;whiteSpace=wrap;html=1;strokeWidth=1;swimlaneLine=1;shadow=0;fontSize=12;" vertex="1" parent="r_7eDQhoXgsMT4AZ9ieX-41">
          <mxGeometry y="294" width="340" height="26" as="geometry" />
        </mxCell>
        <mxCell id="r_7eDQhoXgsMT4AZ9ieX-99" value="- isGuestCheckoutIn(guestName: String): bool" style="text;align=left;verticalAlign=top;spacingLeft=4;spacingRight=4;overflow=hidden;rotatable=0;points=[[0,0.5],[1,0.5]];portConstraint=eastwest;whiteSpace=wrap;html=1;strokeWidth=1;swimlaneLine=1;shadow=0;fontSize=12;" vertex="1" parent="r_7eDQhoXgsMT4AZ9ieX-41">
          <mxGeometry y="320" width="340" height="26" as="geometry" />
        </mxCell>
        <mxCell id="r_7eDQhoXgsMT4AZ9ieX-101" value="" style="endArrow=block;dashed=1;endFill=0;endSize=12;html=1;rounded=0;exitX=1;exitY=0.5;exitDx=0;exitDy=0;entryX=0;entryY=0.5;entryDx=0;entryDy=0;strokeWidth=1;swimlaneLine=1;shadow=0;fontSize=12;" edge="1" parent="1" source="r_7eDQhoXgsMT4AZ9ieX-74" target="r_7eDQhoXgsMT4AZ9ieX-4">
          <mxGeometry width="160" relative="1" as="geometry">
            <mxPoint x="520" y="1590" as="sourcePoint" />
            <mxPoint x="680" y="1590" as="targetPoint" />
          </mxGeometry>
        </mxCell>
        <mxCell id="r_7eDQhoXgsMT4AZ9ieX-102" value="" style="endArrow=block;dashed=1;endFill=0;endSize=12;html=1;rounded=0;exitX=1.002;exitY=0.884;exitDx=0;exitDy=0;entryX=0;entryY=0.5;entryDx=0;entryDy=0;exitPerimeter=0;strokeWidth=1;swimlaneLine=1;shadow=0;fontSize=12;" edge="1" parent="1" source="r_7eDQhoXgsMT4AZ9ieX-91" target="r_7eDQhoXgsMT4AZ9ieX-69">
          <mxGeometry width="160" relative="1" as="geometry">
            <mxPoint x="1230" y="1620" as="sourcePoint" />
            <mxPoint x="1309.34" y="1620.51" as="targetPoint" />
          </mxGeometry>
        </mxCell>
        <mxCell id="r_7eDQhoXgsMT4AZ9ieX-105" value="" style="endArrow=none;dashed=1;html=1;rounded=0;entryX=0.219;entryY=1.016;entryDx=0;entryDy=0;entryPerimeter=0;exitX=0.5;exitY=0;exitDx=0;exitDy=0;strokeWidth=1;swimlaneLine=1;shadow=0;fontSize=12;" edge="1" parent="1" source="r_7eDQhoXgsMT4AZ9ieX-17" target="r_7eDQhoXgsMT4AZ9ieX-99">
          <mxGeometry width="50" height="50" relative="1" as="geometry">
            <mxPoint x="1160" y="2090" as="sourcePoint" />
            <mxPoint x="1210" y="2040" as="targetPoint" />
          </mxGeometry>
        </mxCell>
        <mxCell id="r_7eDQhoXgsMT4AZ9ieX-106" value="" style="endArrow=none;dashed=1;html=1;rounded=0;exitX=0.25;exitY=0;exitDx=0;exitDy=0;entryX=0.744;entryY=1.035;entryDx=0;entryDy=0;entryPerimeter=0;strokeWidth=1;swimlaneLine=1;shadow=0;fontSize=12;" edge="1" parent="1" source="r_7eDQhoXgsMT4AZ9ieX-13" target="r_7eDQhoXgsMT4AZ9ieX-99">
          <mxGeometry width="50" height="50" relative="1" as="geometry">
            <mxPoint x="1160" y="2090" as="sourcePoint" />
            <mxPoint x="1210" y="2040" as="targetPoint" />
          </mxGeometry>
        </mxCell>
        <mxCell id="r_7eDQhoXgsMT4AZ9ieX-107" value="" style="endArrow=none;dashed=1;html=1;rounded=0;exitX=1;exitY=0.5;exitDx=0;exitDy=0;entryX=-0.013;entryY=0.182;entryDx=0;entryDy=0;entryPerimeter=0;strokeWidth=1;swimlaneLine=1;shadow=0;fontSize=12;" edge="1" parent="1" source="r_7eDQhoXgsMT4AZ9ieX-59" target="r_7eDQhoXgsMT4AZ9ieX-36">
          <mxGeometry width="50" height="50" relative="1" as="geometry">
            <mxPoint x="1340" y="2090" as="sourcePoint" />
            <mxPoint x="1390" y="2040" as="targetPoint" />
          </mxGeometry>
        </mxCell>
        <mxCell id="r_7eDQhoXgsMT4AZ9ieX-110" value="" style="endArrow=diamondThin;endFill=0;endSize=24;html=1;rounded=0;entryX=0.488;entryY=1.086;entryDx=0;entryDy=0;entryPerimeter=0;exitX=0;exitY=0.5;exitDx=0;exitDy=0;strokeWidth=1;swimlaneLine=1;shadow=0;fontSize=12;" edge="1" parent="1" source="r_7eDQhoXgsMT4AZ9ieX-63" target="r_7eDQhoXgsMT4AZ9ieX-56">
          <mxGeometry width="160" relative="1" as="geometry">
            <mxPoint x="890" y="1950" as="sourcePoint" />
            <mxPoint x="1050" y="1950" as="targetPoint" />
            <Array as="points">
              <mxPoint x="718" y="2225" />
            </Array>
          </mxGeometry>
        </mxCell>
        <mxCell id="r_7eDQhoXgsMT4AZ9ieX-111" value="" style="endArrow=diamondThin;endFill=1;endSize=24;html=1;rounded=0;exitX=0.5;exitY=0;exitDx=0;exitDy=0;entryX=0.443;entryY=1.155;entryDx=0;entryDy=0;entryPerimeter=0;strokeWidth=1;swimlaneLine=1;shadow=0;fontSize=12;" edge="1" parent="1" source="r_7eDQhoXgsMT4AZ9ieX-41" target="r_7eDQhoXgsMT4AZ9ieX-57">
          <mxGeometry width="160" relative="1" as="geometry">
            <mxPoint x="890" y="1650" as="sourcePoint" />
            <mxPoint x="1050" y="1650" as="targetPoint" />
          </mxGeometry>
        </mxCell>
        <mxCell id="r_7eDQhoXgsMT4AZ9ieX-113" value="" style="endArrow=none;dashed=1;html=1;rounded=0;exitX=0.5;exitY=0;exitDx=0;exitDy=0;entryX=0.501;entryY=1.107;entryDx=0;entryDy=0;entryPerimeter=0;strokeWidth=1;swimlaneLine=1;shadow=0;fontSize=12;" edge="1" parent="1" source="r_7eDQhoXgsMT4AZ9ieX-29" target="r_7eDQhoXgsMT4AZ9ieX-67">
          <mxGeometry width="50" height="50" relative="1" as="geometry">
            <mxPoint x="530" y="1470" as="sourcePoint" />
            <mxPoint x="580" y="1420" as="targetPoint" />
          </mxGeometry>
        </mxCell>
        <mxCell id="r_7eDQhoXgsMT4AZ9ieX-115" value="" style="endArrow=none;dashed=1;html=1;rounded=0;exitX=0.492;exitY=0.954;exitDx=0;exitDy=0;exitPerimeter=0;entryX=0.452;entryY=1.066;entryDx=0;entryDy=0;entryPerimeter=0;strokeWidth=1;swimlaneLine=1;shadow=0;fontSize=12;" edge="1" parent="1" source="r_7eDQhoXgsMT4AZ9ieX-82" target="r_7eDQhoXgsMT4AZ9ieX-64">
          <mxGeometry width="50" height="50" relative="1" as="geometry">
            <mxPoint x="1170" y="1890" as="sourcePoint" />
            <mxPoint x="1220" y="1840" as="targetPoint" />
            <Array as="points">
              <mxPoint x="1478" y="2280" />
              <mxPoint x="973" y="2280" />
            </Array>
          </mxGeometry>
        </mxCell>
        <mxCell id="r_7eDQhoXgsMT4AZ9ieX-117" value="" style="endArrow=none;dashed=1;html=1;rounded=0;exitX=0.5;exitY=0;exitDx=0;exitDy=0;entryX=0;entryY=0.5;entryDx=0;entryDy=0;strokeWidth=1;swimlaneLine=1;shadow=0;fontSize=12;" edge="1" parent="1" source="r_7eDQhoXgsMT4AZ9ieX-37" target="r_7eDQhoXgsMT4AZ9ieX-65">
          <mxGeometry width="50" height="50" relative="1" as="geometry">
            <mxPoint x="440" y="1620" as="sourcePoint" />
            <mxPoint x="490" y="1570" as="targetPoint" />
            <Array as="points">
              <mxPoint x="105" y="1525" />
            </Array>
          </mxGeometry>
        </mxCell>
        <mxCell id="r_7eDQhoXgsMT4AZ9ieX-118" value="" style="endArrow=none;dashed=1;html=1;rounded=0;exitX=0.895;exitY=0.984;exitDx=0;exitDy=0;exitPerimeter=0;entryX=0.25;entryY=0;entryDx=0;entryDy=0;" edge="1" parent="1" source="r_7eDQhoXgsMT4AZ9ieX-78" target="r_7eDQhoXgsMT4AZ9ieX-5">
          <mxGeometry width="50" height="50" relative="1" as="geometry">
            <mxPoint x="880" y="1940" as="sourcePoint" />
            <mxPoint x="930" y="1890" as="targetPoint" />
          </mxGeometry>
        </mxCell>
        <mxCell id="r_7eDQhoXgsMT4AZ9ieX-119" value="" style="endArrow=none;dashed=1;html=1;rounded=0;exitX=0.19;exitY=1.009;exitDx=0;exitDy=0;exitPerimeter=0;entryX=0.75;entryY=0;entryDx=0;entryDy=0;" edge="1" parent="1" source="r_7eDQhoXgsMT4AZ9ieX-56" target="r_7eDQhoXgsMT4AZ9ieX-5">
          <mxGeometry width="50" height="50" relative="1" as="geometry">
            <mxPoint x="880" y="1940" as="sourcePoint" />
            <mxPoint x="930" y="1890" as="targetPoint" />
          </mxGeometry>
        </mxCell>
      </root>
    </mxGraphModel>
  </diagram>
</mxfile>
